<svg width="1600" height="900" viewBox="0 0 1600 900" fill="none" xmlns="http://www.w3.org/2000/svg">
  <defs>
    <marker id="arrow" markerWidth="12" markerHeight="12" refX="10" refY="6" orient="auto">
      <path d="M0 0L12 6L0 12V0Z" fill="#5B6BFF"/>
    </marker>
    <style>
      .title { font: 700 30px 'Inter', 'Segoe UI', Arial, sans-serif; fill: #171C2D; }
      .subtitle { font: 700 20px 'Inter', 'Segoe UI', Arial, sans-serif; fill: #2B3247; }
      .nodeText { font: 600 20px 'Inter', 'Segoe UI', Arial, sans-serif; fill: #1A1F2C; }
      .smallText { font: 500 16px 'Inter', 'Segoe UI', Arial, sans-serif; fill: #4D5A75; }
      .label { font: 600 15px 'Inter', 'Segoe UI', Arial, sans-serif; fill: #5B6BFF; }
      .box { fill: #F5F7FF; stroke: #D9E0FF; stroke-width: 2; }
      .signal { fill: #F4F7FF; stroke: #D7E2FF; stroke-width: 2; }
      .agent { fill: #FFFFFF; stroke: #BBC5FF; stroke-width: 2; }
      .api { fill: #EAF3FF; stroke: #B6D6FF; stroke-width: 2; }
      .digest { fill: #EEF7F5; stroke: #A8E4D0; stroke-width: 2; }
      .output { fill: #FFF4E7; stroke: #F7CA8C; stroke-width: 2; }
      .outline { fill: none; stroke: #5B6BFF; stroke-width: 3; stroke-linecap: round; stroke-linejoin: round; marker-end: url(#arrow); }
      .dash { fill: none; stroke: #5B6BFF; stroke-width: 3; stroke-linecap: round; stroke-linejoin: round; stroke-dasharray: 8 8; marker-end: url(#arrow); }
    </style>
  </defs>

  <rect width="1600" height="900" fill="#F8FAFC"/>

  <text x="800" y="64" text-anchor="middle" class="title">Makit: how the intelligence pipeline works</text>

  <g>
    <rect x="70" y="120" width="300" height="490" rx="28" class="signal"/>
    <text x="220" y="160" text-anchor="middle" class="subtitle">What it reads</text>

    <rect x="100" y="200" width="240" height="70" rx="18" class="agent"/>
    <text x="220" y="242" text-anchor="middle" class="nodeText">💱 Market prices</text>

    <rect x="100" y="290" width="240" height="70" rx="18" class="agent"/>
    <text x="220" y="332" text-anchor="middle" class="nodeText">📰 Social &amp; news</text>

    <rect x="100" y="380" width="240" height="70" rx="18" class="agent"/>
    <text x="220" y="422" text-anchor="middle" class="nodeText">🧾 Your sales data</text>

    <rect x="100" y="470" width="240" height="70" rx="18" class="agent"/>
    <text x="220" y="512" text-anchor="middle" class="nodeText">🏪 Competitors</text>
  </g>

  <path d="M370 235H470" class="outline"/>
  <path d="M370 323H470" class="outline"/>
  <path d="M370 415H470" class="outline"/>
  <path d="M370 506H470" class="outline"/>

  <g>
    <rect x="470" y="230" width="260" height="90" rx="20" class="agent"/>
    <text x="600" y="280" text-anchor="middle" class="nodeText">🔎 Researcher Agent</text>
  </g>

  <g>
    <ellipse cx="960" cy="350" rx="120" ry="60" class="api"/>
    <text x="960" y="346" text-anchor="middle" class="nodeText">🌐 Parallel API</text>
    <text x="960" y="370" text-anchor="middle" class="smallText">web search</text>
  </g>

  <path d="M730 275L850 275L850 350H840" class="outline"/>
  <text x="810" y="260" text-anchor="middle" class="label">web search</text>

  <g>
    <rect x="470" y="390" width="260" height="90" rx="20" class="agent"/>
    <text x="600" y="440" text-anchor="middle" class="nodeText">🧐 Critic Agent</text>
    <text x="600" y="462" text-anchor="middle" class="smallText">finds the holes</text>
  </g>

  <path d="M600 320V390" class="outline"/>

  <g>
    <rect x="830" y="390" width="300" height="90" rx="20" class="agent"/>
    <text x="980" y="440" text-anchor="middle" class="nodeText">🧭 Orchestrator Agent</text>
  </g>

  <path d="M730 435H830" class="outline"/>

  <g>
    <ellipse cx="1280" cy="330" rx="200" ry="70" class="api"/>
    <text x="1280" y="323" text-anchor="middle" class="nodeText">🤖 Amazon Bedrock</text>
    <text x="1280" y="347" text-anchor="middle" class="smallText">or OpenAI / Anthropic / Gemini</text>
  </g>

  <path d="M1130 435L1280 435L1280 390" class="outline"/>
  <text x="1220" y="417" text-anchor="middle" class="label">reasoning</text>

  <g>
    <rect x="830" y="530" width="220" height="90" rx="20" class="digest"/>
    <text x="940" y="582" text-anchor="middle" class="nodeText">📋 Daily Digest</text>
  </g>

  <g>
    <rect x="1110" y="530" width="220" height="90" rx="20" class="agent"/>
    <text x="1220" y="582" text-anchor="middle" class="nodeText">🕵️ Scout Agent</text>
  </g>

  <path d="M980 480V530" class="outline"/>
  <path d="M980 480L1220 480L1220 530" class="outline"/>

  <path d="M1110 575H1050" class="outline"/>
  <path d="M1110 575L960 575L960 620" class="dash"/>

  <g>
    <rect x="1040" y="650" width="190" height="80" rx="18" class="output"/>
    <text x="1135" y="695" text-anchor="middle" class="nodeText">📡 Feeds</text>
  </g>

  <g>
    <rect x="1260" y="650" width="190" height="80" rx="18" class="output"/>
    <text x="1355" y="695" text-anchor="middle" class="nodeText">⚔️ Competitors</text>
  </g>

  <g>
    <rect x="1480" y="650" width="190" height="80" rx="18" class="output"/>
    <text x="1575" y="695" text-anchor="middle" class="nodeText">💡 Opportunities</text>
  </g>

  <path d="M1220 620V650" class="outline"/>
  <path d="M1220 620L1135 620V650" class="outline"/>
  <path d="M1220 620L1355 620V650" class="outline"/>
  <path d="M1220 620L1575 620V650" class="outline"/>

  <path d="M1050 575L1050 620" class="outline"/>
  <path d="M940 620V710H1040" class="outline"/>

  <g>
    <rect x="560" y="650" width="190" height="80" rx="18" class="out" style="fill:#EFFAF2;stroke:#B4EBD3;stroke-width:2;"/>
    <text x="655" y="695" text-anchor="middle" class="nodeText">📊 Dashboard</text>
  </g>

  <g>
    <rect x="330" y="650" width="170" height="80" rx="18" class="out" style="fill:#FFF7E6;stroke:#F8D19A;stroke-width:2;"/>
    <text x="415" y="695" text-anchor="middle" class="nodeText">✉️ Email</text>
  </g>

  <g>
    <rect x="110" y="650" width="180" height="80" rx="18" class="out" style="fill:#F5F0FF;stroke:#D5C8FF;stroke-width:2;"/>
    <text x="200" y="695" text-anchor="middle" class="nodeText">💬 Telegram</text>
  </g>

  <path d="M940 620L940 710H750" class="outline"/>
  <path d="M940 620L940 710H500" class="outline"/>
  <path d="M940 620L940 710H290" class="outline"/>

  <path d="M670 575H600V650" class="outline"/>
  <path d="M600 575H415V650" class="outline"/>
  <path d="M600 575H200V650" class="outline"/>
</svg>
